<svg width="1024" height="1024" viewBox="0 0 1024 1024" fill="none" xmlns="http://www.w3.org/2000/svg">
<path d="M512 162C585.036 162 652.846 184.372 708.954 222.635L576.208 452.558C560.226 435.302 537.375 424.5 512 424.5C463.675 424.5 424.5 463.675 424.5 512C424.5 560.325 463.675 599.5 512 599.5C547.309 599.5 577.732 578.585 591.56 548.469L756.95 262.003C821.776 325.529 862 414.067 862 512C862 705.3 705.3 862 512 862C318.7 862 162 705.3 162 512C162 318.7 318.7 162 512 162Z" fill="#FF6467"/>
<path d="M763.253 138.675C817.735 175.342 863.532 223.49 897.428 279.738C918.636 314.932 934.863 352.764 945.746 392.149L909.905 454.228C902.22 401.294 884.044 350.372 856.384 304.472C826.097 254.213 785.178 211.192 736.497 178.43L763.253 138.675Z" fill="#FF6467"/>
</svg>
