<svg width="1024" height="1024" viewBox="0 0 1024 1024" fill="none" xmlns="http://www.w3.org/2000/svg">
<g clip-path="url(#clip0_0_1)">
<g filter="url(#filter0_d_0_1)">
<mask id="path-1-inside-1_0_1" fill="white">
<path d="M465 94C521.571 94 575.781 104.104 625.928 122.603L534.318 464.494C515.124 450.871 491.665 442.861 466.336 442.861C401.395 442.861 348.75 495.507 348.75 560.448C348.75 625.389 401.395 678.034 466.336 678.034C525.074 678.034 573.752 634.965 582.516 578.685L584.176 579.13L697.496 156.209C836.486 236.609 930 386.883 930 559C930 815.812 721.812 1024 465 1024C208.188 1024 0.000115514 815.812 0 559C0.000202045 302.188 208.188 94 465 94Z"/>
</mask>
<path d="M465 94C521.571 94 575.781 104.104 625.928 122.603L534.318 464.494C515.124 450.871 491.665 442.861 466.336 442.861C401.395 442.861 348.75 495.507 348.75 560.448C348.75 625.389 401.395 678.034 466.336 678.034C525.074 678.034 573.752 634.965 582.516 578.685L584.176 579.13L697.496 156.209C836.486 236.609 930 386.883 930 559C930 815.812 721.812 1024 465 1024C208.188 1024 0.000115514 815.812 0 559C0.000202045 302.188 208.188 94 465 94Z" fill="#FF6467"/>
<path d="M625.928 122.603L633.655 124.673C634.725 120.679 632.576 116.528 628.696 115.097L625.928 122.603ZM534.318 464.494L529.688 471.018C531.824 472.534 534.566 472.908 537.031 472.02C539.495 471.132 541.368 469.095 542.046 466.565L534.318 464.494ZM466.336 442.861V434.861H466.336L466.336 442.861ZM348.75 560.448L340.75 560.448V560.448L348.75 560.448ZM466.336 678.034L466.336 686.034H466.336V678.034ZM582.516 578.685L584.588 570.958C582.395 570.369 580.054 570.741 578.151 571.98C576.247 573.22 574.96 575.21 574.611 577.454L582.516 578.685ZM584.176 579.13L582.103 586.857C584.153 587.407 586.337 587.119 588.175 586.059C590.013 584.998 591.354 583.25 591.903 581.2L584.176 579.13ZM697.496 156.209L701.502 149.284C699.348 148.038 696.737 147.865 694.438 148.817C692.138 149.768 690.413 151.735 689.769 154.138L697.496 156.209ZM930 559H938V559H930ZM0 559H-8V559H0ZM465 94V102C520.612 102 573.886 111.932 623.159 130.108L625.928 122.603L628.696 115.097C577.677 96.2764 522.53 86 465 86V94ZM625.928 122.603L618.2 120.532L526.591 462.424L534.318 464.494L542.046 466.565L633.655 124.673L625.928 122.603ZM534.318 464.494L538.949 457.97C518.446 443.418 493.378 434.861 466.336 434.861V442.861V450.861C489.952 450.861 511.802 458.323 529.688 471.018L534.318 464.494ZM466.336 442.861L466.336 434.861C396.977 434.861 340.75 491.089 340.75 560.448L348.75 560.448L356.75 560.448C356.75 499.926 405.813 450.861 466.336 450.861L466.336 442.861ZM348.75 560.448L340.75 560.448C340.75 629.807 396.977 686.034 466.336 686.034L466.336 678.034L466.336 670.034C405.813 670.034 356.75 620.971 356.75 560.448L348.75 560.448ZM466.336 678.034V686.034C529.078 686.034 581.06 640.032 590.42 579.915L582.516 578.685L574.611 577.454C566.445 629.899 521.07 670.034 466.336 670.034V678.034ZM582.516 578.685L580.443 586.411L582.103 586.857L584.176 579.13L586.248 571.403L584.588 570.958L582.516 578.685ZM584.176 579.13L591.903 581.2L705.224 158.28L697.496 156.209L689.769 154.138L576.448 577.059L584.176 579.13ZM697.496 156.209L693.49 163.134C830.11 242.163 922 389.855 922 559H930H938C938 383.912 842.862 231.055 701.502 149.284L697.496 156.209ZM930 559H922C922 811.394 717.394 1016 465 1016V1024V1032C726.231 1032 938 820.23 938 559H930ZM465 1024V1016C212.606 1016 8.00011 811.394 8 559H0H-8C-7.99988 820.23 203.769 1032 465 1032V1024ZM0 559H8C8.0002 306.606 212.606 102 465 102V94V86C203.769 86 -7.99979 297.77 -8 559H0Z" fill="white" mask="url(#path-1-inside-1_0_1)"/>
</g>
<g filter="url(#filter1_d_0_1)">
<mask id="path-3-inside-2_0_1" fill="white">
<path d="M959.18 218.727C889.413 117.404 790.188 39.9754 674.946 -3.07014L647.224 71.147C747.249 108.509 833.373 175.714 893.927 263.657L959.18 218.727Z"/>
</mask>
<path d="M959.18 218.727C889.413 117.404 790.188 39.9754 674.946 -3.07014L647.224 71.147C747.249 108.509 833.373 175.714 893.927 263.657L959.18 218.727Z" fill="#FF6467"/>
<path d="M959.18 218.727C889.413 117.404 790.188 39.9754 674.946 -3.07014L647.224 71.147C747.249 108.509 833.373 175.714 893.927 263.657L959.18 218.727Z" stroke="white" stroke-width="16" mask="url(#path-3-inside-2_0_1)"/>
</g>
</g>
<defs>
<filter id="filter0_d_0_1" x="-32" y="30" width="1058" height="1058" filterUnits="userSpaceOnUse" color-interpolation-filters="sRGB">
<feFlood flood-opacity="0" result="BackgroundImageFix"/>
<feColorMatrix in="SourceAlpha" type="matrix" values="0 0 0 0 0 0 0 0 0 0 0 0 0 0 0 0 0 0 127 0" result="hardAlpha"/>
<feOffset dx="32"/>
<feGaussianBlur stdDeviation="32"/>
<feComposite in2="hardAlpha" operator="out"/>
<feColorMatrix type="matrix" values="0 0 0 0 0 0 0 0 0 0 0 0 0 0 0 0 0 0 0.25 0"/>
<feBlend mode="normal" in2="BackgroundImageFix" result="effect1_dropShadow_0_1"/>
<feBlend mode="normal" in="SourceGraphic" in2="effect1_dropShadow_0_1" result="shape"/>
</filter>
<filter id="filter1_d_0_1" x="647.224" y="-31.0701" width="375.956" height="330.727" filterUnits="userSpaceOnUse" color-interpolation-filters="sRGB">
<feFlood flood-opacity="0" result="BackgroundImageFix"/>
<feColorMatrix in="SourceAlpha" type="matrix" values="0 0 0 0 0 0 0 0 0 0 0 0 0 0 0 0 0 0 127 0" result="hardAlpha"/>
<feOffset dx="32" dy="4"/>
<feGaussianBlur stdDeviation="16"/>
<feComposite in2="hardAlpha" operator="out"/>
<feColorMatrix type="matrix" values="0 0 0 0 0 0 0 0 0 0 0 0 0 0 0 0 0 0 0.25 0"/>
<feBlend mode="normal" in2="BackgroundImageFix" result="effect1_dropShadow_0_1"/>
<feBlend mode="normal" in="SourceGraphic" in2="effect1_dropShadow_0_1" result="shape"/>
</filter>
<clipPath id="clip0_0_1">
<rect width="1024" height="1024" fill="white"/>
</clipPath>
</defs>
</svg>
